<?xml version="1.0" encoding="UTF-8"?>
<svg id="Layer_1" data-name="Layer 1" xmlns="http://www.w3.org/2000/svg" width="16" height="16" xmlns:xlink="http://www.w3.org/1999/xlink" version="1.1" viewBox="0 0 16 16">
  <defs>
    <style>
      .cls-1 {
        fill: url(#linear-gradient);
        stroke-width: 0px;
      }

      .cls-2 {
        fill: none;
        stroke: url(#linear-gradient-2);
        stroke-linecap: round;
      }
    </style>
    <linearGradient id="linear-gradient" x1="7" y1="17" x2="7" y2="3" gradientTransform="translate(0 18) scale(1 -1)" gradientUnits="userSpaceOnUse">
      <stop offset="0" stop-color="#f61"/>
      <stop offset=".5" stop-color="#f61"/>
    </linearGradient>
    <linearGradient id="linear-gradient-2" x1="11.5" y1="17" x2="11.5" y2="3" gradientTransform="translate(0 18) scale(1 -1)" gradientUnits="userSpaceOnUse">
      <stop offset="0" stop-color="#ff5f5f"/>
      <stop offset=".5" stop-color="#e1da5b"/>
      <stop offset="1" stop-color="#5fff97"/>
    </linearGradient>
  </defs>
  <path class="cls-1" d="M13,2c0-.6-.4-1-1-1l-7.2,2c-.5.1-.8.5-.8,1v5.6c-1.4-.3-2.7.6-2.9,1.9s.6,2.7,1.9,2.9c1.4.3,2.7-.6,2.9-1.9,0-.2,0-.3,0-.5v-7.2l5-1.4v3.2l2-1v-3.5Z"/>
  <path class="cls-2" d="M10.5,8v5M12.5,9v3M8.5,10v1M14.5,10v1"/>
</svg>