<?xml version="1.0" encoding="UTF-8"?>
<svg id="Layer_1" data-name="Layer 1" xmlns="http://www.w3.org/2000/svg" width="16" height="16" version="1.1" viewBox="0 0 16 16">
  <defs>
    <style>
      .cls-1 {
        fill: #f61;
        stroke-width: 0px;
      }
    </style>
  </defs>
  <path class="cls-1" d="M3,1c-1.1,0-2,.9-2,2v1h14v-1c0-1.1-.9-2-2-2H3ZM12,2h1v1h-1v-1ZM1,5v8c0,1.1.9,2,2,2h10c1.1,0,2-.9,2-2V5H1ZM8,6c1.7,0,3,1.4,3,3,0,1.3-.8,2.4-2,2.8v.2h-2v-1c0-.6.4-1,1-1,.6,0,1-.4,1-1,0-.6-.4-1-1-1-.4,0-.7.2-.9.5-.3.5-.9.6-1.4.4s-.6-.9-.4-1.4c.5-.9,1.5-1.5,2.6-1.5ZM7,13h2v1h-2v-1Z"/>
</svg>