<?xml version="1.0" encoding="UTF-8"?>
<svg id="Layer_1" data-name="Layer 1" xmlns="http://www.w3.org/2000/svg" width="16" height="16" version="1.1" viewBox="0 0 16 16">
  <defs>
    <style>
      .cls-1 {
        fill: #f61;
        stroke-width: 0px;
      }
    </style>
  </defs>
  <path class="cls-1" d="M6.6,5.1l-.4-1.1-.4,1.1h.8ZM9.8,8.1c-.5,0-1,.5-1,1.1s.4,1.1,1,1.1,1-.5,1-1.1-.4-1.1-1-1.1ZM4,2c-.6,0-1,.4-1,1v9c0,.6.4,1,1,1h8c.6,0,1-.4,1-1V3c0-.5-.4-1-1-1H4ZM5.5,2.6h1.4l1.9,4.3h-1.5l-.3-.7h-1.6l-.3.7h-1.5l1.9-4.3h0ZM8.4,11c-1.1-.7-1.4-2.1-.6-3.1.8-1,2.3-1.3,3.4-.6,1.1.7,1.4,2.1.6,3.1-.2.3-.6.6-1,.8.3.5.8-.1,1.1,0l.5.6c-.6.8-1.9.7-2.6,0-.4-.4-.9-.7-1.4-.9ZM1,4v9c0,1.1.9,2,2,2h10c1.1,0,2-.9,2-2V4h-1v9c0,.6-.4,1-1,1H3c-.6,0-1-.4-1-1V4h-1Z"/>
</svg>