<?xml version="1.0" encoding="UTF-8"?>
<svg id="Layer_1" data-name="Layer 1" xmlns="http://www.w3.org/2000/svg" width="16" height="16" version="1.1" viewBox="0 0 16 16">
  <defs>
    <style>
      .cls-1 {
        fill: #f61;
        stroke-width: 0px;
      }
    </style>
  </defs>
  <path class="cls-1" d="M4.7,2c-.5-1-1.8-1.3-2.7-.7-1,.5-1.3,1.8-.7,2.7.2.3.4.6.7.7v6.5c-1,.5-1.3,1.8-.7,2.7.5,1,1.8,1.3,2.7.7.3-.2.6-.4.7-.7h6.5c.5,1,1.8,1.3,2.7.7s1.3-1.8.7-2.7c-.2-.3-.4-.6-.7-.7v-6.5c1-.5,1.3-1.8.7-2.7-.5-1-1.8-1.3-2.7-.7-.3.2-.6.4-.7.7h-6.5ZM5.4,4h5.9c.2.3.4.6.7.7v5.9l-6.6-6.6h0ZM4,5.4l6.6,6.6h-5.9c-.2-.3-.4-.6-.7-.7v-5.9h0Z"/>
</svg>