<?xml version="1.0" encoding="UTF-8"?>
<svg id="Layer_1" data-name="Layer 1" xmlns="http://www.w3.org/2000/svg" width="16" height="16" version="1.1" viewBox="0 0 16 16">
  <defs>
    <style>
      .cls-1 {
        fill: #f61;
        stroke-width: 0px;
      }
    </style>
  </defs>
  <path class="cls-1" d="M4.7,2c-.5-1-1.8-1.3-2.7-.7-1,.5-1.3,1.8-.7,2.7.2.3.4.6.7.7v6.5c-1,.5-1.3,1.8-.7,2.7.5,1,1.8,1.3,2.7.7.3-.2.6-.4.7-.7h1.3v-2h-1.3c-.2-.3-.4-.6-.7-.7v-5.8l3.6,3.6h1.4v-1.4l-3.6-3.6h5.8c.2.3.4.6.7.7v1.3h2v-1.3c1-.6,1.3-1.8.7-2.7-.6-1-1.8-1.3-2.7-.7-.3.2-.6.4-.7.7h-6.5ZM11,8v3h-3v2h3v3h2v-3h3v-2h-3v-3h-2Z"/>
</svg>