<?xml version="1.0" encoding="UTF-8"?>
<svg id="Layer_1" data-name="Layer 1" xmlns="http://www.w3.org/2000/svg" width="16" height="16" xmlns:xlink="http://www.w3.org/1999/xlink" version="1.1" viewBox="0 0 16 16">
  <defs>
    <style>
      .cls-1 {
        fill: url(#linear-gradient);
        stroke-width: 0px;
      }
    </style>
    <linearGradient id="linear-gradient" x1="8" y1="18" x2="8" y2="2" gradientTransform="translate(0 18) scale(1 -1)" gradientUnits="userSpaceOnUse">
      <stop offset=".2" stop-color="#f61"/>
      <stop offset=".9" stop-color="#f61"/>
    </linearGradient>
  </defs>
  <path class="cls-1" d="M1,3h14v10H1M3,9c-.6,0-1,.4-1,1s.4,1,1,1h1c.6,0,1-.4,1-1s-.4-1-1-1h-1ZM11,9c.6,0,1-.4,1-1h1c.6,0,1-.4,1-1s-.4-1-1-1h-2c-.6,0-1,.4-1,1h-1c-.6,0-1,.4-1,1s.4,1,1,1h2Z"/>
</svg>