<?xml version="1.0" encoding="UTF-8"?>
<svg id="Layer_1" data-name="Layer 1" xmlns="http://www.w3.org/2000/svg" width="16" height="16" version="1.1" viewBox="0 0 16 16">
  <defs>
    <style>
      .cls-1 {
        fill: #f61;
        stroke-width: 0px;
      }
    </style>
  </defs>
  <path class="cls-1" d="M8,1c-2.9,0-5.5,1.5-6.9,4-.3.5-.1,1.1.4,1.4.5.3,1.1.1,1.4-.4,1.7-2.9,5.3-3.9,8.2-2.2.9.5,1.7,1.3,2.2,2.2.3.5.9.6,1.4.4.5-.3.6-.9.4-1.4-1.4-2.5-4.1-4-6.9-4ZM8,5c-1.8,0-3.4,1.2-3.9,3-.1.5.2,1.1.7,1.2.5.1,1-.2,1.2-.7.3-1.1,1.4-1.7,2.4-1.4.7.2,1.2.7,1.4,1.4.2.5.7.8,1.2.7.5-.2.8-.7.7-1.2-.5-1.7-2.1-3-3.9-3ZM8,9c-.6,0-1,.4-1,1v1h-3c0,2.2,1.8,4,4,4s4-1.8,4-4h-3v-1c0-.6-.4-1-1-1Z"/>
</svg>